<svg xmlns="http://www.w3.org/2000/svg" xmlns:xlink="http://www.w3.org/1999/xlink" viewBox="0 0 1920 1080" preserveAspectRatio="xMidYMid slice" width="1920" height="1080">
  <defs>
    <!-- Base dark background gradient -->
    <radialGradient id="bgGrad" cx="50%" cy="50%" r="70%">
      <stop offset="0%" stop-color="#1a0e2e" />
      <stop offset="40%" stop-color="#0e0918" />
      <stop offset="100%" stop-color="#060410" />
    </radialGradient>

    <!-- Primary cosmic iris gradient -->
    <radialGradient id="irisGlow" cx="50%" cy="50%" r="50%">
      <stop offset="0%" stop-color="#c084fc" stop-opacity="0.15" />
      <stop offset="30%" stop-color="#7c3aed" stop-opacity="0.08" />
      <stop offset="70%" stop-color="#2d1b69" stop-opacity="0.04" />
      <stop offset="100%" stop-color="#0e0918" stop-opacity="0" />
    </radialGradient>

    <!-- Teal aurora gradient -->
    <radialGradient id="tealAura" cx="30%" cy="40%" r="40%">
      <stop offset="0%" stop-color="#2dd4bf" stop-opacity="0.07" />
      <stop offset="50%" stop-color="#0d9488" stop-opacity="0.03" />
      <stop offset="100%" stop-color="transparent" stop-opacity="0" />
    </radialGradient>

    <!-- Rose ember gradient -->
    <radialGradient id="roseAura" cx="70%" cy="60%" r="35%">
      <stop offset="0%" stop-color="#fb7185" stop-opacity="0.06" />
      <stop offset="50%" stop-color="#e11d48" stop-opacity="0.02" />
      <stop offset="100%" stop-color="transparent" stop-opacity="0" />
    </radialGradient>

    <!-- Gold foil top gradient -->
    <radialGradient id="goldAura" cx="50%" cy="10%" r="40%">
      <stop offset="0%" stop-color="#fbbf24" stop-opacity="0.06" />
      <stop offset="50%" stop-color="#d97706" stop-opacity="0.02" />
      <stop offset="100%" stop-color="transparent" stop-opacity="0" />
    </radialGradient>

    <!-- Center eye iris -->
    <radialGradient id="eyeCore" cx="50%" cy="50%" r="50%">
      <stop offset="0%" stop-color="#e9d5ff" stop-opacity="0.9" />
      <stop offset="25%" stop-color="#a855f7" stop-opacity="0.7" />
      <stop offset="60%" stop-color="#4c1d95" stop-opacity="0.5" />
      <stop offset="100%" stop-color="#1e0a4a" stop-opacity="0.3" />
    </radialGradient>

    <!-- Eye pupil -->
    <radialGradient id="pupilGrad" cx="50%" cy="50%" r="50%">
      <stop offset="0%" stop-color="#0a0014" stop-opacity="1" />
      <stop offset="60%" stop-color="#1a0a3e" stop-opacity="0.9" />
      <stop offset="100%" stop-color="#2d1b69" stop-opacity="0.6" />
    </radialGradient>

    <!-- Mandala ring glow -->
    <filter id="glow" x="-30%" y="-30%" width="160%" height="160%">
      <feGaussianBlur stdDeviation="3" result="blur" />
      <feMerge>
        <feMergeNode in="blur" />
        <feMergeNode in="SourceGraphic" />
      </feMerge>
    </filter>

    <!-- Soft glow filter -->
    <filter id="softGlow" x="-50%" y="-50%" width="200%" height="200%">
      <feGaussianBlur stdDeviation="8" result="blur" />
      <feMerge>
        <feMergeNode in="blur" />
        <feMergeNode in="SourceGraphic" />
      </feMerge>
    </filter>

    <!-- Strong glow filter -->
    <filter id="strongGlow" x="-100%" y="-100%" width="300%" height="300%">
      <feGaussianBlur stdDeviation="15" result="blur" />
      <feMerge>
        <feMergeNode in="blur" />
        <feMergeNode in="SourceGraphic" />
      </feMerge>
    </filter>

    <!-- Star twinkle filter -->
    <filter id="starGlow" x="-200%" y="-200%" width="500%" height="500%">
      <feGaussianBlur stdDeviation="1.5" result="blur" />
      <feMerge>
        <feMergeNode in="blur" />
        <feMergeNode in="SourceGraphic" />
      </feMerge>
    </filter>

    <!-- Light ray gradient -->
    <linearGradient id="rayGrad" x1="0%" y1="0%" x2="100%" y2="0%">
      <stop offset="0%" stop-color="transparent" />
      <stop offset="50%" stop-color="#a855f7" stop-opacity="0.06" />
      <stop offset="100%" stop-color="transparent" />
    </linearGradient>

    <!-- Neural line gradient -->
    <linearGradient id="neuralGrad" x1="0%" y1="0%" x2="100%" y2="100%">
      <stop offset="0%" stop-color="#7c3aed" stop-opacity="0" />
      <stop offset="50%" stop-color="#a855f7" stop-opacity="0.2" />
      <stop offset="100%" stop-color="#2dd4bf" stop-opacity="0" />
    </linearGradient>
  </defs>

  <!-- ════ LAYER 1: Deep base ════ -->
  <rect width="1920" height="1080" fill="url(#bgGrad)" />

  <!-- ════ LAYER 2: Atmospheric aura overlays ════ -->
  <rect width="1920" height="1080" fill="url(#irisGlow)" />
  <rect width="1920" height="1080" fill="url(#tealAura)" />
  <rect width="1920" height="1080" fill="url(#roseAura)" />
  <rect width="1920" height="1080" fill="url(#goldAura)" />

  <!-- ════ LAYER 3: Star field — scattered bokeh particles ════ -->
  <g opacity="0.6">
    <!-- Tiny stars -->
    <circle cx="123" cy="67" r="0.8" fill="#e9d5ff" opacity="0.7" />
    <circle cx="345" cy="234" r="0.6" fill="#fde68a" opacity="0.5" />
    <circle cx="567" cy="89" r="1" fill="#bfdbfe" opacity="0.6" />
    <circle cx="789" cy="312" r="0.7" fill="#e9d5ff" opacity="0.8" />
    <circle cx="1023" cy="145" r="0.9" fill="#fde68a" opacity="0.4" />
    <circle cx="1245" cy="78" r="0.6" fill="#bbf7d0" opacity="0.5" />
    <circle cx="1456" cy="234" r="1.1" fill="#fda4af" opacity="0.4" />
    <circle cx="1678" cy="112" r="0.7" fill="#e9d5ff" opacity="0.6" />
    <circle cx="1812" cy="289" r="0.8" fill="#bfdbfe" opacity="0.5" />
    <circle cx="234" cy="456" r="0.6" fill="#fde68a" opacity="0.4" />
    <circle cx="478" cy="567" r="1" fill="#e9d5ff" opacity="0.5" />
    <circle cx="712" cy="489" r="0.7" fill="#bbf7d0" opacity="0.6" />
    <circle cx="934" cy="623" r="0.8" fill="#fda4af" opacity="0.3" />
    <circle cx="1156" cy="512" r="0.9" fill="#bfdbfe" opacity="0.5" />
    <circle cx="1389" cy="445" r="0.6" fill="#e9d5ff" opacity="0.7" />
    <circle cx="1623" cy="578" r="1" fill="#fde68a" opacity="0.4" />
    <circle cx="1834" cy="456" r="0.7" fill="#bbf7d0" opacity="0.5" />
    <circle cx="89" cy="723" r="0.8" fill="#fda4af" opacity="0.4" />
    <circle cx="312" cy="812" r="0.6" fill="#e9d5ff" opacity="0.6" />
    <circle cx="556" cy="734" r="1.1" fill="#bfdbfe" opacity="0.5" />
    <circle cx="778" cy="867" r="0.7" fill="#fde68a" opacity="0.4" />
    <circle cx="1012" cy="789" r="0.9" fill="#e9d5ff" opacity="0.7" />
    <circle cx="1234" cy="923" r="0.6" fill="#bbf7d0" opacity="0.5" />
    <circle cx="1467" cy="845" r="0.8" fill="#fda4af" opacity="0.3" />
    <circle cx="1689" cy="978" r="1" fill="#bfdbfe" opacity="0.4" />
    <circle cx="1845" cy="856" r="0.7" fill="#e9d5ff" opacity="0.6" />
    <!-- Medium stars -->
    <circle cx="156" cy="178" r="1.5" fill="#c084fc" opacity="0.35" filter="url(#starGlow)" />
    <circle cx="1678" cy="356" r="1.8" fill="#2dd4bf" opacity="0.3" filter="url(#starGlow)" />
    <circle cx="890" cy="45" r="1.6" fill="#fbbf24" opacity="0.3" filter="url(#starGlow)" />
    <circle cx="1456" cy="945" r="1.4" fill="#fb7185" opacity="0.25" filter="url(#starGlow)" />
    <circle cx="234" cy="934" r="1.7" fill="#c084fc" opacity="0.3" filter="url(#starGlow)" />
    <circle cx="67" cy="534" r="1.5" fill="#2dd4bf" opacity="0.28" filter="url(#starGlow)" />
    <circle cx="1867" cy="712" r="1.6" fill="#fbbf24" opacity="0.25" filter="url(#starGlow)" />
    <!-- Bokeh large soft orbs -->
    <circle cx="178" cy="123" r="4" fill="#c084fc" opacity="0.06" filter="url(#softGlow)" />
    <circle cx="1734" cy="267" r="5" fill="#2dd4bf" opacity="0.05" filter="url(#softGlow)" />
    <circle cx="456" cy="890" r="3.5" fill="#fbbf24" opacity="0.06" filter="url(#softGlow)" />
    <circle cx="1456" cy="778" r="4.5" fill="#fb7185" opacity="0.04" filter="url(#softGlow)" />
    <circle cx="789" cy="156" r="3" fill="#c084fc" opacity="0.07" filter="url(#softGlow)" />
  </g>

  <!-- ════ LAYER 4: Light rays emanating from center ════ -->
  <g opacity="0.5" filter="url(#softGlow)">
    <line x1="960" y1="540" x2="0" y2="0" stroke="#7c3aed" stroke-width="0.5" stroke-opacity="0.06" />
    <line x1="960" y1="540" x2="1920" y2="0" stroke="#7c3aed" stroke-width="0.5" stroke-opacity="0.06" />
    <line x1="960" y1="540" x2="0" y2="1080" stroke="#7c3aed" stroke-width="0.5" stroke-opacity="0.06" />
    <line x1="960" y1="540" x2="1920" y2="1080" stroke="#7c3aed" stroke-width="0.5" stroke-opacity="0.06" />
    <line x1="960" y1="540" x2="960" y2="0" stroke="#a855f7" stroke-width="0.4" stroke-opacity="0.05" />
    <line x1="960" y1="540" x2="960" y2="1080" stroke="#a855f7" stroke-width="0.4" stroke-opacity="0.05" />
    <line x1="960" y1="540" x2="0" y2="540" stroke="#a855f7" stroke-width="0.4" stroke-opacity="0.05" />
    <line x1="960" y1="540" x2="1920" y2="540" stroke="#a855f7" stroke-width="0.4" stroke-opacity="0.05" />
    <line x1="960" y1="540" x2="240" y2="0" stroke="#2dd4bf" stroke-width="0.3" stroke-opacity="0.04" />
    <line x1="960" y1="540" x2="1680" y2="0" stroke="#2dd4bf" stroke-width="0.3" stroke-opacity="0.04" />
    <line x1="960" y1="540" x2="240" y2="1080" stroke="#2dd4bf" stroke-width="0.3" stroke-opacity="0.04" />
    <line x1="960" y1="540" x2="1680" y2="1080" stroke="#2dd4bf" stroke-width="0.3" stroke-opacity="0.04" />
  </g>

  <!-- ════ LAYER 5: Neural network connection lines ════ -->
  <g opacity="0.4" stroke-width="0.4">
    <!-- Outer neural web -->
    <path d="M 200 150 Q 450 80 700 200 Q 900 300 1100 180" stroke="#7c3aed" stroke-opacity="0.12" fill="none" />
    <path d="M 1200 100 Q 1400 200 1600 150 Q 1750 100 1850 250" stroke="#2dd4bf" stroke-opacity="0.1" fill="none" />
    <path d="M 100 700 Q 300 600 500 700 Q 700 800 900 720" stroke="#a855f7" stroke-opacity="0.1" fill="none" />
    <path d="M 1000 800 Q 1200 700 1400 780 Q 1600 860 1800 780" stroke="#7c3aed" stroke-opacity="0.1" fill="none" />
    <path d="M 150 400 Q 350 350 550 420 Q 750 490 850 400" stroke="#2dd4bf" stroke-opacity="0.08" fill="none" />
    <path d="M 1050 600 Q 1250 550 1450 620 Q 1650 690 1800 620" stroke="#c084fc" stroke-opacity="0.08" fill="none" />
    <!-- Synaptic node dots along neural paths -->
    <circle cx="200" cy="150" r="1.5" fill="#7c3aed" opacity="0.2" />
    <circle cx="700" cy="200" r="1.5" fill="#a855f7" opacity="0.2" />
    <circle cx="1100" cy="180" r="1.5" fill="#7c3aed" opacity="0.2" />
    <circle cx="1600" cy="150" r="1.5" fill="#2dd4bf" opacity="0.2" />
    <circle cx="300" cy="600" r="1.5" fill="#a855f7" opacity="0.2" />
    <circle cx="900" cy="720" r="1.5" fill="#7c3aed" opacity="0.2" />
    <circle cx="1400" cy="780" r="1.5" fill="#c084fc" opacity="0.2" />
  </g>

  <!-- ════ LAYER 6: Outer mandala rings ════ -->
  <!-- Outermost faint ring -->
  <circle cx="960" cy="540" r="480" fill="none" stroke="#4c1d95" stroke-width="0.5" stroke-opacity="0.15" stroke-dasharray="3 8" />
  <circle cx="960" cy="540" r="450" fill="none" stroke="#7c3aed" stroke-width="0.3" stroke-opacity="0.12" />
  <circle cx="960" cy="540" r="420" fill="none" stroke="#4c1d95" stroke-width="0.4" stroke-opacity="0.1" stroke-dasharray="1 6" />
  <circle cx="960" cy="540" r="390" fill="none" stroke="#2dd4bf" stroke-width="0.3" stroke-opacity="0.08" stroke-dasharray="4 12" />
  <circle cx="960" cy="540" r="360" fill="none" stroke="#7c3aed" stroke-width="0.5" stroke-opacity="0.12" />

  <!-- ════ LAYER 7: Mandala geometric petals (outer) ════ -->
  <g transform="translate(960, 540)" opacity="0.1">
    <!-- 12-fold outer petal pattern -->
    <g stroke="#a855f7" stroke-width="0.6" fill="none" stroke-opacity="0.8">
      <line x1="0" y1="-340" x2="0" y2="-300" />
      <line x1="170" y1="-294" x2="150" y2="-260" transform="rotate(30)" />
      <line x1="170" y1="-294" x2="150" y2="-260" transform="rotate(60)" />
      <line x1="170" y1="-294" x2="150" y2="-260" transform="rotate(90)" />
      <line x1="170" y1="-294" x2="150" y2="-260" transform="rotate(120)" />
      <line x1="170" y1="-294" x2="150" y2="-260" transform="rotate(150)" />
      <line x1="170" y1="-294" x2="150" y2="-260" transform="rotate(180)" />
      <line x1="170" y1="-294" x2="150" y2="-260" transform="rotate(210)" />
      <line x1="170" y1="-294" x2="150" y2="-260" transform="rotate(240)" />
      <line x1="170" y1="-294" x2="150" y2="-260" transform="rotate(270)" />
      <line x1="170" y1="-294" x2="150" y2="-260" transform="rotate(300)" />
      <line x1="170" y1="-294" x2="150" y2="-260" transform="rotate(330)" />
    </g>
    <!-- Outer arc petals -->
    <g stroke="#c084fc" stroke-width="0.4" fill="none" stroke-opacity="0.5">
      <path d="M 0 -320 Q 60 -290 0 -260" />
      <path d="M 0 -320 Q -60 -290 0 -260" />
      <path d="M 0 -320 Q 60 -290 0 -260" transform="rotate(30)" />
      <path d="M 0 -320 Q -60 -290 0 -260" transform="rotate(30)" />
      <path d="M 0 -320 Q 60 -290 0 -260" transform="rotate(60)" />
      <path d="M 0 -320 Q -60 -290 0 -260" transform="rotate(60)" />
      <path d="M 0 -320 Q 60 -290 0 -260" transform="rotate(90)" />
      <path d="M 0 -320 Q -60 -290 0 -260" transform="rotate(90)" />
      <path d="M 0 -320 Q 60 -290 0 -260" transform="rotate(120)" />
      <path d="M 0 -320 Q -60 -290 0 -260" transform="rotate(120)" />
      <path d="M 0 -320 Q 60 -290 0 -260" transform="rotate(150)" />
      <path d="M 0 -320 Q -60 -290 0 -260" transform="rotate(150)" />
      <path d="M 0 -320 Q 60 -290 0 -260" transform="rotate(180)" />
      <path d="M 0 -320 Q -60 -290 0 -260" transform="rotate(180)" />
      <path d="M 0 -320 Q 60 -290 0 -260" transform="rotate(210)" />
      <path d="M 0 -320 Q -60 -290 0 -260" transform="rotate(210)" />
      <path d="M 0 -320 Q 60 -290 0 -260" transform="rotate(240)" />
      <path d="M 0 -320 Q -60 -290 0 -260" transform="rotate(240)" />
      <path d="M 0 -320 Q 60 -290 0 -260" transform="rotate(270)" />
      <path d="M 0 -320 Q -60 -290 0 -260" transform="rotate(270)" />
      <path d="M 0 -320 Q 60 -290 0 -260" transform="rotate(300)" />
      <path d="M 0 -320 Q -60 -290 0 -260" transform="rotate(300)" />
      <path d="M 0 -320 Q 60 -290 0 -260" transform="rotate(330)" />
      <path d="M 0 -320 Q -60 -290 0 -260" transform="rotate(330)" />
    </g>
  </g>

  <!-- ════ LAYER 8: Mid mandala rings ════ -->
  <circle cx="960" cy="540" r="280" fill="none" stroke="#7c3aed" stroke-width="0.6" stroke-opacity="0.15" />
  <circle cx="960" cy="540" r="250" fill="none" stroke="#c084fc" stroke-width="0.4" stroke-opacity="0.1" stroke-dasharray="2 5" />
  <circle cx="960" cy="540" r="220" fill="none" stroke="#2dd4bf" stroke-width="0.4" stroke-opacity="0.1" stroke-dasharray="6 10" />
  <circle cx="960" cy="540" r="190" fill="none" stroke="#7c3aed" stroke-width="0.6" stroke-opacity="0.14" />

  <!-- ════ LAYER 9: Mandala spokes and inner geometry ════ -->
  <g transform="translate(960, 540)" opacity="0.12">
    <!-- 8-fold inner spoke lines -->
    <g stroke="#c084fc" stroke-width="0.5" fill="none">
      <line x1="0" y1="-240" x2="0" y2="-160" />
      <line x1="0" y1="-240" x2="0" y2="-160" transform="rotate(45)" />
      <line x1="0" y1="-240" x2="0" y2="-160" transform="rotate(90)" />
      <line x1="0" y1="-240" x2="0" y2="-160" transform="rotate(135)" />
      <line x1="0" y1="-240" x2="0" y2="-160" transform="rotate(180)" />
      <line x1="0" y1="-240" x2="0" y2="-160" transform="rotate(225)" />
      <line x1="0" y1="-240" x2="0" y2="-160" transform="rotate(270)" />
      <line x1="0" y1="-240" x2="0" y2="-160" transform="rotate(315)" />
    </g>
    <!-- Inner diamond corners -->
    <g stroke="#a855f7" stroke-width="0.5" fill="none" stroke-opacity="0.9">
      <polygon points="0,-180 180,0 0,180 -180,0" stroke-width="0.4" />
      <polygon points="0,-160 160,0 0,160 -160,0" stroke-width="0.3" />
    </g>
    <!-- Sacred geometry inner hexagon -->
    <polygon points="0,-170 147,-85 147,85 0,170 -147,85 -147,-85" fill="none" stroke="#2dd4bf" stroke-width="0.4" stroke-opacity="0.7" />
    <polygon points="0,-150 130,-75 130,75 0,150 -130,75 -130,-75" fill="none" stroke="#7c3aed" stroke-width="0.3" stroke-opacity="0.6" />
  </g>

  <!-- ════ LAYER 10: Eye glow ambient ════ -->
  <circle cx="960" cy="540" r="140" fill="#3b0764" opacity="0.08" filter="url(#strongGlow)" />
  <circle cx="960" cy="540" r="100" fill="#7c3aed" opacity="0.06" filter="url(#strongGlow)" />
  <circle cx="960" cy="540" r="60" fill="#c084fc" opacity="0.05" filter="url(#strongGlow)" />

  <!-- ════ LAYER 11: Inner rings near eye ════ -->
  <circle cx="960" cy="540" r="130" fill="none" stroke="#7c3aed" stroke-width="0.8" stroke-opacity="0.18" />
  <circle cx="960" cy="540" r="110" fill="none" stroke="#c084fc" stroke-width="0.5" stroke-opacity="0.14" />
  <circle cx="960" cy="540" r="90" fill="none" stroke="#a855f7" stroke-width="0.6" stroke-opacity="0.16" />

  <!-- ════ LAYER 12: Cosmic eye (central focal point) ════ -->
  <!-- Eye shape using ellipse path -->
  <g transform="translate(960, 540)">
    <!-- Eye outer glow ring -->
    <ellipse rx="70" ry="35" fill="none" stroke="#c084fc" stroke-width="1.5" stroke-opacity="0.2" filter="url(#softGlow)" />
    <!-- Eye white/sclera - very dark -->
    <path d="M -68 0 Q -34 -34 0 -34 Q 34 -34 68 0 Q 34 34 0 34 Q -34 34 -68 0 Z" fill="#1a0a3e" opacity="0.9" />
    <!-- Iris -->
    <ellipse rx="26" ry="26" fill="url(#eyeCore)" />
    <!-- Iris ring detail -->
    <ellipse rx="26" ry="26" fill="none" stroke="#e9d5ff" stroke-width="0.8" stroke-opacity="0.3" />
    <ellipse rx="20" ry="20" fill="none" stroke="#c084fc" stroke-width="0.5" stroke-opacity="0.4" />
    <!-- Iris spokes -->
    <g stroke="#e9d5ff" stroke-width="0.3" stroke-opacity="0.3">
      <line x1="0" y1="-26" x2="0" y2="26" />
      <line x1="-26" y1="0" x2="26" y2="0" />
      <line x1="-18" y1="-18" x2="18" y2="18" />
      <line x1="18" y1="-18" x2="-18" y2="18" />
    </g>
    <!-- Pupil -->
    <ellipse rx="11" ry="11" fill="url(#pupilGrad)" />
    <!-- Pupil reflection -->
    <ellipse cx="-4" cy="-4" rx="3" ry="3" fill="#c084fc" opacity="0.25" />
    <!-- Eye lashes / lids outline -->
    <path d="M -68 0 Q -34 -34 0 -34 Q 34 -34 68 0" fill="none" stroke="#c084fc" stroke-width="0.8" stroke-opacity="0.25" />
    <path d="M -68 0 Q -34 34 0 34 Q 34 34 68 0" fill="none" stroke="#a855f7" stroke-width="0.8" stroke-opacity="0.2" />
    <!-- Third-eye diamond above -->
    <polygon points="0,-45 10,-35 0,-25 -10,-35" fill="none" stroke="#fbbf24" stroke-width="0.8" stroke-opacity="0.3" />
    <circle cx="0" cy="-35" r="2" fill="#fbbf24" opacity="0.2" />
  </g>

  <!-- ════ LAYER 13: Additional ambient aura circles ════ -->
  <!-- Violet ambient around eye -->
  <circle cx="960" cy="540" r="200" fill="none" stroke="#7c3aed" stroke-width="30" stroke-opacity="0.025" filter="url(#softGlow)" />
  <!-- Teal upper-left aura -->
  <circle cx="350" cy="200" r="280" fill="#0d9488" opacity="0.03" filter="url(#strongGlow)" />
  <!-- Rose lower-right aura -->
  <circle cx="1560" cy="880" r="240" fill="#be123c" opacity="0.025" filter="url(#strongGlow)" />
  <!-- Gold top-center aura -->
  <circle cx="960" cy="80" r="200" fill="#d97706" opacity="0.03" filter="url(#strongGlow)" />
  <!-- Iris midnight lower-left -->
  <circle cx="280" cy="820" r="200" fill="#4c1d95" opacity="0.04" filter="url(#strongGlow)" />

  <!-- ════ LAYER 14: Subtle vignette overlay ════ -->
  <radialGradient id="vignette" cx="50%" cy="50%" r="70%">
    <stop offset="50%" stop-color="transparent" />
    <stop offset="100%" stop-color="#040208" stop-opacity="0.65" />
  </radialGradient>
  <rect width="1920" height="1080" fill="url(#vignette)" />

  <!-- ════ ANIMATIONS ════ -->
  <g opacity="1">
    <!-- Slow rotating outer mandala ring -->
    <circle cx="960" cy="540" r="390" fill="none" stroke="url(#neuralGrad)" stroke-width="0.5" stroke-opacity="0.08" stroke-dasharray="1 15">
      <animateTransform attributeName="transform" type="rotate" values="0 960 540; 360 960 540" dur="120s" repeatCount="indefinite" />
    </circle>
    <!-- Counter-rotating mid ring -->
    <circle cx="960" cy="540" r="250" fill="none" stroke="#2dd4bf" stroke-width="0.4" stroke-opacity="0.08" stroke-dasharray="3 12">
      <animateTransform attributeName="transform" type="rotate" values="360 960 540; 0 960 540" dur="80s" repeatCount="indefinite" />
    </circle>
    <!-- Pulsing center glow -->
    <circle cx="960" cy="540" r="50" fill="#7c3aed" opacity="0">
      <animate attributeName="opacity" values="0;0.04;0" dur="6s" repeatCount="indefinite" />
      <animate attributeName="r" values="45;65;45" dur="6s" repeatCount="indefinite" />
    </circle>
    <!-- Slow particle drift 1 -->
    <circle cx="400" cy="300" r="2" fill="#c084fc" opacity="0.15" filter="url(#starGlow)">
      <animate attributeName="cy" values="300;260;300" dur="15s" repeatCount="indefinite" />
      <animate attributeName="opacity" values="0.15;0.05;0.15" dur="15s" repeatCount="indefinite" />
    </circle>
    <!-- Slow particle drift 2 -->
    <circle cx="1500" cy="700" r="2" fill="#2dd4bf" opacity="0.12" filter="url(#starGlow)">
      <animate attributeName="cy" values="700;660;700" dur="18s" repeatCount="indefinite" />
      <animate attributeName="opacity" values="0.12;0.04;0.12" dur="18s" repeatCount="indefinite" />
    </circle>
    <!-- Slow particle drift 3 -->
    <circle cx="960" cy="200" r="1.5" fill="#fbbf24" opacity="0.1" filter="url(#starGlow)">
      <animate attributeName="cy" values="200;170;200" dur="12s" repeatCount="indefinite" />
      <animate attributeName="opacity" values="0.1;0.03;0.1" dur="12s" repeatCount="indefinite" />
    </circle>
    <!-- Eye iris slow pulse -->
    <ellipse cx="960" cy="540" rx="26" ry="26" fill="none" stroke="#e9d5ff" stroke-width="1" stroke-opacity="0">
      <animate attributeName="stroke-opacity" values="0;0.08;0" dur="8s" repeatCount="indefinite" />
      <animate attributeName="rx" values="24;30;24" dur="8s" repeatCount="indefinite" />
      <animate attributeName="ry" values="24;30;24" dur="8s" repeatCount="indefinite" />
    </ellipse>
  </g>
</svg>
